ply
format ascii 1.0
comment Created by Blender 2.80 (sub 74) - www.blender.org, source file: ''
element vertex 564
property float x
property float y
property float z
property float nx
property float ny
property float nz
property float s
property float t
element face 446
property list uchar uint vertex_indices
end_header
1.000000 -1.000000 5.622436 -0.707107 -0.000000 -0.707107 0.000433 0.364688
0.000000 -1.000000 6.622436 -0.707107 -0.000000 -0.707107 0.000433 0.240488
0.000000 0.708479 6.622436 -0.707107 -0.000000 -0.707107 0.204757 0.240488
1.000000 0.708479 5.622436 -0.707107 0.000000 -0.707107 0.204757 0.364688
0.000000 1.000000 4.155508 0.000000 1.000000 0.000000 0.996101 0.434377
0.000000 1.000000 6.622436 0.000000 1.000000 0.000000 0.996101 0.737374
1.000000 1.000000 5.622436 0.000000 1.000000 0.000000 0.876508 0.614550
1.000000 1.000000 4.155508 0.000000 1.000000 -0.000000 0.876508 0.434377
1.000000 1.000000 4.013756 0.000000 1.000000 0.000000 0.876508 0.416967
1.382814 1.000000 4.155508 0.000000 1.000000 0.000000 0.830725 0.434377
1.382814 1.000000 4.013756 0.000000 1.000000 -0.000000 0.830725 0.416967
1.000000 -1.000000 4.155508 -1.000000 -0.000000 -0.000000 0.000433 0.544851
1.000000 -1.000000 5.622436 -1.000000 -0.000000 -0.000000 0.000433 0.364688
1.000000 0.708479 5.622436 -1.000000 -0.000000 -0.000000 0.204757 0.364688
1.000000 0.708479 4.155508 -1.000000 -0.000000 0.000000 0.204757 0.544851
0.000000 -0.678810 0.622435 0.000000 0.000000 -1.000000 0.245074 0.469578
1.000000 -0.678810 0.622435 0.000000 0.000000 -1.000000 0.245074 0.589172
1.000000 -1.000000 0.622435 0.000000 0.000000 -1.000000 0.205624 0.589172
0.000000 -1.000000 0.622435 0.000000 0.000000 -1.000000 0.205624 0.469578
0.000000 -1.000000 2.155508 0.000000 0.000000 1.000000 0.120027 0.755561
1.000000 -1.000000 2.155508 0.000000 0.000000 1.000000 0.000433 0.755561
1.000000 0.708479 2.155508 0.000000 0.000000 1.000000 0.000433 0.545718
0.000000 0.708479 2.155508 -0.000000 0.000000 1.000000 0.120027 0.545718
1.000000 -1.000000 5.910780 0.000000 -1.000000 0.000000 0.710265 0.123257
1.000000 -1.000000 5.622436 0.000000 -1.000000 0.000000 0.710265 0.158672
1.382814 -1.000000 5.622436 0.000000 -1.000000 0.000000 0.664483 0.158672
1.382814 -1.000000 5.910780 -0.000000 -1.000000 -0.000000 0.664483 0.123257
0.000000 -1.000000 4.155508 0.000000 0.000000 1.000000 0.452139 0.773442
1.000000 -1.000000 4.155508 0.000000 0.000000 1.000000 0.571733 0.773442
1.000000 0.708479 4.155508 0.000000 0.000000 1.000000 0.571733 0.983285
0.000000 0.708479 4.155508 -0.000000 0.000000 1.000000 0.452139 0.983285
0.000000 -1.000000 1.155507 0.000000 0.000000 1.000000 0.000433 0.756427
1.000000 -1.000000 1.155507 0.000000 0.000000 1.000000 0.120027 0.756427
1.000000 0.708479 1.155507 0.000000 0.000000 1.000000 0.120027 0.966270
0.000000 0.708479 1.155507 -0.000000 0.000000 1.000000 0.000433 0.966270
1.000000 -1.000000 1.155507 -1.000000 -0.000000 -0.000000 0.830725 0.773656
1.000000 -1.000000 2.018312 -1.000000 -0.000000 -0.000000 0.933905 0.773656
1.000000 0.708479 2.018312 -1.000000 -0.000000 -0.000000 0.933905 0.983499
1.000000 0.708479 1.155507 -1.000000 -0.000000 0.000000 0.830725 0.983499
1.000000 1.000000 1.155507 0.000000 1.000000 0.000000 0.876508 0.065907
1.000000 1.000000 2.018312 0.000000 1.000000 0.000000 0.876508 0.171880
1.382814 1.000000 2.018312 0.000000 1.000000 0.000000 0.830725 0.171880
1.382814 1.000000 1.155507 0.000000 1.000000 -0.000000 0.830725 0.065907
1.382814 -0.678810 1.155507 1.000000 -0.000000 0.000000 0.065907 0.201209
1.382814 -0.678810 2.018312 1.000000 -0.000000 0.000000 0.171879 0.201209
1.382814 -1.000000 2.018312 1.000000 -0.000000 0.000000 0.171879 0.239621
1.382814 -1.000000 1.155507 1.000000 -0.000000 0.000000 0.065907 0.239621
0.000000 1.000000 1.155507 0.000000 1.000000 0.000000 0.996101 0.065907
0.000000 1.000000 2.018312 0.000000 1.000000 0.000000 0.996101 0.171880
1.000000 -1.000000 0.622435 0.000000 -1.000000 0.000000 0.710265 0.772789
1.000000 -1.000000 1.155507 0.000000 -1.000000 0.000000 0.710265 0.707316
0.000000 -1.000000 1.155507 0.000000 -1.000000 0.000000 0.829858 0.707316
0.000000 -1.000000 0.622435 0.000000 -1.000000 0.000000 0.829858 0.772789
1.000000 -1.000000 2.018312 0.000000 -1.000000 0.000000 0.710265 0.601343
1.000000 -1.000000 2.155508 0.000000 -1.000000 0.000000 0.710265 0.584492
0.000000 -1.000000 2.155508 0.000000 -1.000000 0.000000 0.829858 0.584492
0.000000 -1.000000 2.018312 0.000000 -1.000000 0.000000 0.829858 0.601343
1.000000 -1.000000 2.018312 0.000000 0.000000 -1.000000 0.205624 0.875875
0.000000 -1.000000 2.018312 0.000000 0.000000 -1.000000 0.205624 0.756282
0.000000 0.708479 2.018312 0.000000 0.000000 -1.000000 0.415467 0.756282
1.000000 0.708479 2.018312 -0.000000 -0.000000 -1.000000 0.415467 0.875875
1.000000 -1.000000 4.013756 0.000000 -1.000000 0.000000 0.710265 0.356256
1.000000 -1.000000 4.155508 0.000000 -1.000000 0.000000 0.710265 0.338845
0.000000 -1.000000 4.155508 0.000000 -1.000000 0.000000 0.829858 0.338845
0.000000 -1.000000 4.013756 0.000000 -1.000000 0.000000 0.829858 0.356256
1.000000 0.708479 1.155507 0.000000 -1.000000 0.000000 0.205624 0.876742
1.000000 0.708479 2.018312 0.000000 -1.000000 0.000000 0.308809 0.876742
0.000000 0.708479 2.018312 0.000000 -1.000000 0.000000 0.308809 0.999567
0.000000 0.708479 1.155507 0.000000 -1.000000 0.000000 0.205624 0.999567
1.000000 0.708479 4.155508 0.000000 -1.000000 0.000000 0.452139 0.772575
1.000000 0.708479 5.622436 0.000000 -1.000000 0.000000 0.452139 0.592402
0.000000 0.708479 6.622436 0.000000 -1.000000 0.000000 0.571733 0.469578
0.000000 0.708479 4.155508 0.000000 -1.000000 0.000000 0.571733 0.772575
1.382814 -1.000000 2.018312 0.000000 -1.000000 0.000000 0.664483 0.601343
1.382814 -1.000000 2.155508 -0.000000 -1.000000 -0.000000 0.664483 0.584492
1.000000 1.000000 0.622435 0.000000 1.000000 0.000000 0.876508 0.000433
1.382814 1.000000 0.622435 0.000000 1.000000 -0.000000 0.830725 0.000433
1.382814 1.000000 5.622436 0.000000 1.000000 0.000000 0.830725 0.614550
1.000000 1.000000 5.910780 0.000000 1.000000 0.000000 0.876508 0.649966
1.382814 1.000000 5.910780 0.000000 1.000000 0.000000 0.830725 0.649966
1.382814 -1.000000 1.155507 0.000000 -1.000000 0.000000 0.664483 0.707316
0.000000 1.000000 0.622435 0.000000 1.000000 0.000000 0.996101 0.000433
0.000000 1.000000 2.155508 0.000000 1.000000 0.000000 0.996101 0.188731
1.000000 1.000000 2.155508 0.000000 1.000000 0.000000 0.876508 0.188731
0.000000 1.000000 4.013756 0.000000 1.000000 0.000000 0.996101 0.416967
1.000000 -1.000000 2.155508 -1.000000 -0.000000 -0.000000 0.205624 0.468712
1.000000 -1.000000 4.013756 -1.000000 -0.000000 -0.000000 0.205624 0.240488
1.000000 0.708479 4.013756 -1.000000 -0.000000 -0.000000 0.409947 0.240488
1.000000 0.708479 2.155508 -1.000000 -0.000000 0.000000 0.409947 0.468712
1.000000 0.708479 2.155508 0.000000 -1.000000 0.000000 0.205624 0.635821
1.000000 0.708479 4.013756 0.000000 -1.000000 0.000000 0.433860 0.635821
0.000000 0.708479 4.013756 0.000000 -1.000000 0.000000 0.433860 0.755415
0.000000 0.708479 2.155508 0.000000 -1.000000 0.000000 0.205624 0.755415
1.000000 -1.000000 4.013756 0.000000 0.000000 -1.000000 0.664483 0.773656
0.000000 -1.000000 4.013756 0.000000 0.000000 -1.000000 0.784076 0.773656
0.000000 0.708479 4.013756 0.000000 0.000000 -1.000000 0.784076 0.983499
1.000000 0.708479 4.013756 -0.000000 -0.000000 -1.000000 0.664483 0.983499
1.000000 -0.678810 5.910780 0.707107 -0.000000 0.707107 0.450264 0.286270
0.000000 -0.678810 6.910780 0.707107 -0.000000 0.707107 0.450264 0.405864
0.000000 -1.000000 6.910780 0.707107 -0.000000 0.707107 0.410814 0.405864
1.000000 -1.000000 5.910780 0.707107 0.000000 0.707107 0.410814 0.286270
0.000000 -1.000000 6.622436 -0.000000 -1.000000 -0.000000 0.829858 0.035849
0.000000 -1.000000 6.910780 -0.000000 -1.000000 -0.000000 0.829858 0.000433
0.000000 1.000000 6.910780 0.000000 1.000000 0.000000 0.996101 0.772789
1.382814 -0.678810 4.155508 1.000000 -0.000000 0.000000 0.434375 0.201209
1.382814 -0.678810 5.622436 1.000000 -0.000000 0.000000 0.614548 0.201209
1.382814 -1.000000 5.622436 1.000000 -0.000000 0.000000 0.614548 0.239621
1.382814 -1.000000 4.155508 1.000000 -0.000000 0.000000 0.434375 0.239621
1.382814 0.678810 5.622436 1.000000 0.000000 0.000000 0.614548 0.038846
1.382814 1.000000 5.622436 1.000000 0.000000 0.000000 0.614548 0.000433
1.382814 1.000000 5.910780 1.000000 0.000000 0.000000 0.649963 0.000433
1.382814 0.678810 5.910780 1.000000 -0.000000 0.000000 0.649963 0.038846
1.382814 -0.678810 0.622435 1.000000 -0.000000 0.000000 0.000433 0.201209
1.382814 -1.000000 0.622435 1.000000 -0.000000 0.000000 0.000433 0.239621
1.382814 -0.678810 2.155508 1.000000 -0.000000 0.000000 0.188730 0.201209
1.382814 -1.000000 2.155508 1.000000 -0.000000 0.000000 0.188730 0.239621
1.382814 -0.678810 4.013756 1.000000 -0.000000 0.000000 0.416965 0.201209
1.382814 -1.000000 4.013756 1.000000 -0.000000 0.000000 0.416965 0.239621
1.047856 0.726666 0.622435 -0.990612 -0.000000 -0.136702 0.579901 0.680212
1.047856 0.952144 0.622435 -0.990612 -0.000000 -0.136702 0.579901 0.653246
1.133748 0.884688 0.000019 -0.990612 -0.000000 -0.136702 0.656463 0.661313
1.133748 0.794122 0.000019 -0.990612 0.000000 -0.136702 0.656463 0.672144
1.382814 1.000000 2.155508 0.000000 1.000000 -0.000000 0.830725 0.188731
1.382814 -1.000000 0.622435 0.000000 -1.000000 0.000000 0.664483 0.772789
1.382814 -1.000000 4.155508 0.000000 -1.000000 0.000000 0.664483 0.338845
1.000000 1.000000 5.910780 -1.000000 0.000000 0.000000 0.586784 0.589662
1.000000 0.678810 5.910780 -1.000000 0.000000 0.000000 0.586784 0.550212
1.000000 0.678810 6.021937 -1.000000 0.000000 0.000000 0.600077 0.550212
1.000000 1.000000 6.021937 -1.000000 -0.000000 -0.000000 0.600077 0.589662
1.382814 -1.000000 4.013756 0.000000 -1.000000 0.000000 0.664483 0.356256
1.382814 -1.000000 6.021937 -0.000000 -1.000000 -0.000000 0.664483 0.109604
1.000000 -1.000000 6.021937 0.000000 -1.000000 -0.000000 0.710265 0.109604
1.000000 0.678810 5.910780 0.000000 -0.000000 1.000000 0.617013 0.286270
1.000000 -0.678810 5.910780 0.000000 -0.000000 1.000000 0.450264 0.286270
1.382814 -0.678810 5.910780 0.000000 -0.000000 1.000000 0.450264 0.240488
1.382814 0.678810 5.910780 0.000000 0.000000 1.000000 0.617013 0.240488
1.047856 0.952144 0.622435 0.000000 0.994178 -0.107747 0.197374 0.545718
1.334958 0.952144 0.622435 0.000000 0.994178 -0.107747 0.197374 0.580053
1.249066 0.884688 0.000019 0.000000 0.994178 -0.107747 0.120894 0.569781
1.133748 0.884688 0.000019 0.000000 0.994178 -0.107747 0.120894 0.555990
1.000000 0.678810 0.622435 -0.000000 -0.000000 -1.000000 0.411822 0.589172
1.382814 0.678810 0.622435 -0.000000 -0.000000 -1.000000 0.411822 0.634954
1.382814 -0.678810 0.622435 -0.000000 0.000000 -1.000000 0.245074 0.634954
1.382814 1.000000 4.013756 1.000000 -0.000000 0.000000 0.416965 0.000433
1.382814 1.000000 4.155508 1.000000 -0.000000 0.000000 0.434376 0.000433
1.382814 0.678810 4.155508 1.000000 -0.000000 0.000000 0.434376 0.038846
1.382814 0.678810 4.013756 1.000000 -0.000000 0.000000 0.416965 0.038846
1.382814 1.000000 2.155508 1.000000 -0.000000 0.000000 0.188730 0.000433
1.382814 0.678810 2.155508 1.000000 -0.000000 0.000000 0.188730 0.038846
1.382814 1.000000 2.018312 1.000000 -0.000000 0.000000 0.171879 0.000433
1.382814 0.678810 2.018312 1.000000 -0.000000 0.000000 0.171879 0.038846
1.382814 1.000000 0.622435 1.000000 -0.000000 0.000000 0.000433 0.000433
1.382814 1.000000 1.155507 1.000000 -0.000000 0.000000 0.065907 0.000433
1.382814 0.678810 1.155507 1.000000 -0.000000 0.000000 0.065907 0.038846
1.382814 0.678810 0.622435 1.000000 -0.000000 0.000000 0.000433 0.038846
1.382814 -0.678810 5.910780 1.000000 0.000000 0.000000 0.649963 0.201209
1.382814 -1.000000 5.910780 1.000000 -0.000000 0.000000 0.649963 0.239621
1.000000 1.000000 5.910780 0.707107 -0.000000 0.707107 0.656463 0.286270
0.000000 1.000000 6.910780 0.707107 -0.000000 0.707107 0.656463 0.405864
0.000000 0.678810 6.910780 0.707107 -0.000000 0.707107 0.617013 0.405864
1.000000 0.678810 5.910780 0.707107 0.000000 0.707107 0.617013 0.286270
0.000000 1.000000 0.622435 0.000000 0.000000 -1.000000 0.451272 0.469578
1.000000 1.000000 0.622435 0.000000 0.000000 -1.000000 0.451272 0.589172
0.000000 0.678810 0.622435 0.000000 0.000000 -1.000000 0.411822 0.469578
1.111352 0.760979 6.133372 0.000000 -0.997695 0.067852 0.485427 0.420047
1.271462 0.760979 6.133372 0.000000 -0.997695 0.067852 0.485427 0.439196
1.229279 0.802304 6.741018 0.000000 -0.997695 0.067852 0.410814 0.434151
1.153535 0.802304 6.741018 0.000000 -0.997695 0.067852 0.410814 0.425092
1.111352 -0.760979 6.133372 -0.997599 0.000000 0.069254 0.579901 0.755502
1.111352 -0.917832 6.133372 -0.997599 0.000000 0.069254 0.579901 0.736744
1.153535 -0.876506 6.741018 -0.997599 0.000000 0.069254 0.654471 0.741686
1.153535 -0.802304 6.741018 -0.997599 0.000000 0.069254 0.654471 0.750560
1.000000 0.678810 5.910780 -0.000000 -1.000000 -0.000000 0.512726 0.406730
1.382814 0.678810 5.910780 -0.000000 -1.000000 -0.000000 0.512726 0.452513
1.382814 0.678810 6.021937 -0.000000 -1.000000 -0.000000 0.499073 0.452513
1.000000 0.678810 6.021937 0.000000 -1.000000 -0.000000 0.499073 0.406730
1.382814 -0.678810 6.021937 1.000000 0.000000 0.000000 0.663616 0.201209
1.382814 -1.000000 6.021937 1.000000 -0.000000 0.000000 0.663616 0.239621
1.382814 1.000000 6.021937 1.000000 0.000000 0.000000 0.663616 0.000433
1.382814 0.678810 6.021937 1.000000 -0.000000 0.000000 0.663616 0.038846
1.000000 1.000000 6.021937 -0.000000 1.000000 0.000000 0.876508 0.663619
1.382814 1.000000 6.021937 0.000000 1.000000 0.000000 0.830725 0.663619
1.382814 -0.678810 5.910780 -0.000000 1.000000 0.000000 0.615505 0.406730
1.000000 -0.678810 5.910780 -0.000000 1.000000 0.000000 0.615505 0.452513
1.000000 -0.678810 6.021937 -0.000000 1.000000 0.000000 0.601852 0.452513
1.382814 -0.678810 6.021937 0.000000 1.000000 0.000000 0.601852 0.406730
1.000000 -0.678810 5.910780 -1.000000 0.000000 0.000000 0.586784 0.549345
1.000000 -1.000000 5.910780 -1.000000 0.000000 0.000000 0.586784 0.509895
1.000000 -1.000000 6.021937 -1.000000 0.000000 0.000000 0.600077 0.509895
1.000000 -0.678810 6.021937 -1.000000 -0.000000 -0.000000 0.600077 0.549345
1.111352 0.917832 6.133372 0.000000 0.804853 0.593474 0.863191 0.677265
1.271462 0.917832 6.133372 0.000000 0.804853 0.593474 0.844042 0.677265
1.382814 1.000000 6.021937 0.000000 0.804853 0.593474 0.830725 0.663619
1.000000 1.000000 6.021937 -0.000000 0.804853 0.593474 0.876508 0.663619
1.111352 -0.917832 6.133372 -0.707367 0.000000 0.706846 0.572600 0.539253
1.111352 -0.760979 6.133372 -0.707367 0.000000 0.706846 0.572600 0.519987
1.000000 -0.678810 6.021937 -0.707367 0.000000 0.706846 0.585917 0.509895
1.000000 -1.000000 6.021937 -0.707367 0.000000 0.706846 0.585917 0.549345
1.271462 -0.760979 6.133372 0.707367 -0.000000 0.706846 0.572600 0.498936
1.271462 -0.917832 6.133372 0.707367 -0.000000 0.706846 0.572600 0.479671
1.382814 -1.000000 6.021937 0.707367 -0.000000 0.706846 0.585917 0.469578
1.382814 -0.678810 6.021937 0.707367 0.000000 0.706846 0.585917 0.509028
1.271462 -0.917832 6.133372 0.000000 -0.804853 0.593474 0.677800 0.095958
1.111352 -0.917832 6.133372 0.000000 -0.804853 0.593474 0.696948 0.095958
1.000000 -1.000000 6.021937 0.000000 -0.804853 0.593474 0.710265 0.109604
1.382814 -1.000000 6.021937 0.000000 -0.804853 0.593474 0.664483 0.109604
1.111352 0.760979 6.133372 -0.707367 0.000000 0.706846 0.572600 0.579570
1.111352 0.917832 6.133372 -0.707367 0.000000 0.706846 0.572600 0.560304
1.000000 1.000000 6.021937 -0.707367 0.000000 0.706846 0.585917 0.550212
1.000000 0.678810 6.021937 -0.707367 0.000000 0.706846 0.585917 0.589662
1.271462 0.917832 6.133372 0.707367 -0.000000 0.706846 0.586784 0.498936
1.271462 0.760979 6.133372 0.707367 -0.000000 0.706846 0.586784 0.479671
1.382814 0.678810 6.021937 0.707367 -0.000000 0.706846 0.600101 0.469578
1.382814 1.000000 6.021937 0.707367 0.000000 0.706846 0.600101 0.509028
1.271462 0.760979 6.133372 0.000000 -0.804853 0.593474 0.485427 0.439196
1.111352 0.760979 6.133372 0.000000 -0.804853 0.593474 0.485427 0.420047
1.000000 0.678810 6.021937 0.000000 -0.804853 0.593474 0.499073 0.406730
1.382814 0.678810 6.021937 0.000000 -0.804853 0.593474 0.499073 0.452513
1.111352 -0.760979 6.133372 0.000000 0.804853 0.593474 0.588205 0.439196
1.271462 -0.760979 6.133372 0.000000 0.804853 0.593474 0.588205 0.420047
1.382814 -0.678810 6.021937 0.000000 0.804853 0.593474 0.601852 0.406730
1.000000 -0.678810 6.021937 -0.000000 0.804853 0.593474 0.601852 0.452513
1.153535 -0.802304 6.741018 0.000000 -0.000000 1.000000 0.453683 0.453379
1.153535 -0.876506 6.741018 0.000000 -0.000000 1.000000 0.453683 0.462254
1.229279 -0.876506 6.741018 0.000000 -0.000000 1.000000 0.444380 0.462254
1.229279 -0.802304 6.741018 0.000000 0.000000 1.000000 0.444380 0.453380
1.153535 0.876506 6.741018 0.000000 -0.000000 1.000000 0.443513 0.453379
1.153535 0.802304 6.741018 0.000000 -0.000000 1.000000 0.443513 0.462254
1.229279 0.802304 6.741018 0.000000 -0.000000 1.000000 0.434210 0.462254
1.229279 0.876506 6.741018 0.000000 0.000000 1.000000 0.434210 0.453380
1.111352 0.917832 6.133372 -0.997599 0.000000 0.069254 0.120894 0.772369
1.111352 0.760979 6.133372 -0.997599 0.000000 0.069254 0.120894 0.753611
1.153535 0.802304 6.741018 -0.997599 0.000000 0.069254 0.195465 0.758553
1.153535 0.876506 6.741018 -0.997599 0.000000 0.069254 0.195465 0.767427
1.271462 -0.917832 6.133372 0.997599 0.000000 0.069254 0.120894 0.752744
1.271462 -0.760979 6.133372 0.997599 0.000000 0.069254 0.120894 0.733985
1.229279 -0.802304 6.741018 0.997599 0.000000 0.069254 0.195501 0.738928
1.229279 -0.876506 6.741018 0.997599 -0.000000 0.069254 0.195501 0.747802
1.271462 0.917832 6.133372 -0.000000 0.997695 0.067852 0.844042 0.677265
1.111352 0.917832 6.133372 -0.000000 0.997695 0.067852 0.863191 0.677265
1.153535 0.876506 6.741018 -0.000000 0.997695 0.067852 0.858146 0.751878
1.229279 0.876506 6.741018 0.000000 0.997695 0.067852 0.849087 0.751878
1.271462 -0.760979 6.133372 -0.000000 0.997695 0.067852 0.588205 0.420047
1.111352 -0.760979 6.133372 -0.000000 0.997695 0.067852 0.588205 0.439196
1.153535 -0.802304 6.741018 -0.000000 0.997695 0.067852 0.513593 0.434151
1.229279 -0.802304 6.741018 0.000000 0.997695 0.067852 0.513593 0.425092
1.271462 0.760979 6.133372 0.997599 0.000000 0.069254 0.120894 0.733118
1.271462 0.917832 6.133372 0.997599 0.000000 0.069254 0.120894 0.714360
1.229279 0.876506 6.741018 0.997599 0.000000 0.069254 0.195501 0.719302
1.229279 0.802304 6.741018 0.997599 -0.000000 0.069254 0.195501 0.728176
1.111352 -0.917832 6.133372 0.000000 -0.997695 0.067852 0.696948 0.095958
1.271462 -0.917832 6.133372 0.000000 -0.997695 0.067852 0.677800 0.095958
1.229279 -0.876506 6.741018 0.000000 -0.997695 0.067852 0.682844 0.021345
1.153535 -0.876506 6.741018 0.000000 -0.997695 0.067852 0.691903 0.021345
1.047856 0.952144 0.622435 0.000000 0.000000 -1.000000 0.445394 0.594895
1.047856 0.726666 0.622435 0.000000 0.000000 -1.000000 0.417700 0.594895
1.334958 0.726666 0.622435 0.000000 -0.000000 -1.000000 0.417700 0.629231
1.334958 0.952144 0.622435 0.000000 -0.000000 -1.000000 0.445394 0.629231
1.382814 1.000000 0.622435 0.000000 -0.000000 -1.000000 0.451272 0.634954
1.047856 -0.952144 0.622435 0.000000 0.000000 -1.000000 0.211501 0.594895
1.334958 -0.952144 0.622435 0.000000 0.000000 -1.000000 0.211501 0.629231
1.382814 -1.000000 0.622435 0.000000 0.000000 -1.000000 0.205624 0.634954
1.047856 -0.726666 0.622435 0.000000 0.000000 -1.000000 0.239196 0.594895
1.334958 -0.726666 0.622435 0.000000 -0.000000 -1.000000 0.239196 0.629231
1.133748 0.794122 0.000019 -0.000000 -0.000000 -1.000000 0.433343 0.467543
1.133748 0.884688 0.000019 -0.000000 -0.000000 -1.000000 0.422512 0.467543
1.249066 0.884688 0.000019 -0.000000 -0.000000 -1.000000 0.422512 0.453379
1.249066 0.794122 0.000019 -0.000000 0.000000 -1.000000 0.433343 0.453379
1.133748 -0.884688 0.000019 -0.000000 -0.000000 -1.000000 0.421645 0.467543
1.133748 -0.794122 0.000019 -0.000000 -0.000000 -1.000000 0.410814 0.467543
1.249066 -0.794122 0.000019 -0.000000 -0.000000 -1.000000 0.410814 0.453379
1.249066 -0.884688 0.000019 -0.000000 0.000000 -1.000000 0.421645 0.453379
1.334958 0.726666 0.622435 0.000000 -0.994178 -0.107747 0.120894 0.685660
1.047856 0.726666 0.622435 0.000000 -0.994178 -0.107747 0.120894 0.651325
1.133748 0.794122 0.000019 0.000000 -0.994178 -0.107747 0.197374 0.661597
1.249066 0.794122 0.000019 -0.000000 -0.994178 -0.107747 0.197374 0.675388
1.334958 -0.726666 0.622435 0.990612 0.000000 -0.136702 0.656401 0.708911
1.334958 -0.952144 0.622435 0.990612 0.000000 -0.136702 0.656401 0.735877
1.249066 -0.884688 0.000019 0.990612 0.000000 -0.136702 0.579901 0.727809
1.249066 -0.794122 0.000019 0.990612 0.000000 -0.136702 0.579901 0.716978
1.334958 -0.952144 0.622435 0.000000 -0.994178 -0.107747 0.197374 0.580920
1.047856 -0.952144 0.622435 0.000000 -0.994178 -0.107747 0.197374 0.615256
1.133748 -0.884688 0.000019 0.000000 -0.994178 -0.107747 0.120894 0.604984
1.249066 -0.884688 0.000019 -0.000000 -0.994178 -0.107747 0.120894 0.591192
1.334958 0.952144 0.622435 0.990612 0.000000 -0.136702 0.579901 0.708044
1.334958 0.726666 0.622435 0.990612 0.000000 -0.136702 0.579901 0.681079
1.249066 0.794122 0.000019 0.990612 0.000000 -0.136702 0.656401 0.689146
1.249066 0.884688 0.000019 0.990612 0.000000 -0.136702 0.656401 0.699977
1.047856 -0.726666 0.622435 0.000000 0.994178 -0.107747 0.197374 0.616123
1.334958 -0.726666 0.622435 0.000000 0.994178 -0.107747 0.197374 0.650458
1.249066 -0.794122 0.000019 0.000000 0.994178 -0.107747 0.120894 0.640186
1.133748 -0.794122 0.000019 0.000000 0.994178 -0.107747 0.120894 0.626395
1.047856 -0.952144 0.622435 -0.990612 -0.000000 -0.136702 0.120894 0.713493
1.047856 -0.726666 0.622435 -0.990612 -0.000000 -0.136702 0.120894 0.686527
1.133748 -0.794122 0.000019 -0.990612 -0.000000 -0.136702 0.197456 0.694595
1.133748 -0.884688 0.000019 -0.990612 0.000000 -0.136702 0.197456 0.705426
-1.000000 -1.000000 5.622436 0.707107 0.000000 -0.707107 0.000433 0.364688
-1.000000 0.708479 5.622436 0.707107 0.000000 -0.707107 0.204757 0.364688
0.000000 0.708479 6.622436 0.707107 0.000000 -0.707107 0.204757 0.240488
0.000000 -1.000000 6.622436 0.707107 0.000000 -0.707107 0.000433 0.240488
-1.000000 1.000000 4.155508 -0.000000 1.000000 0.000000 0.876508 0.434377
-1.000000 1.000000 5.622436 -0.000000 1.000000 0.000000 0.876508 0.614550
-1.000000 1.000000 4.013756 -0.000000 1.000000 0.000000 0.876508 0.416967
-1.382814 1.000000 4.013756 -0.000000 1.000000 0.000000 0.830725 0.416967
-1.382814 1.000000 4.155508 -0.000000 1.000000 0.000000 0.830725 0.434377
-1.000000 -1.000000 4.155508 1.000000 0.000000 0.000000 0.000433 0.544851
-1.000000 0.708479 4.155508 1.000000 0.000000 0.000000 0.204757 0.544851
-1.000000 0.708479 5.622436 1.000000 0.000000 0.000000 0.204757 0.364688
-1.000000 -1.000000 5.622436 1.000000 -0.000000 0.000000 0.000433 0.364688
-1.000000 -1.000000 0.622435 0.000000 0.000000 -1.000000 0.205624 0.589172
-1.000000 -0.678810 0.622435 0.000000 0.000000 -1.000000 0.245074 0.589172
-1.000000 0.708479 2.155508 -0.000000 0.000000 1.000000 0.000433 0.545718
-1.000000 -1.000000 2.155508 -0.000000 0.000000 1.000000 0.000433 0.755561
-1.000000 -1.000000 5.910780 0.000000 -1.000000 0.000000 0.710265 0.123257
-1.382814 -1.000000 5.910780 0.000000 -1.000000 0.000000 0.664483 0.123257
-1.382814 -1.000000 5.622436 0.000000 -1.000000 0.000000 0.664483 0.158672
-1.000000 -1.000000 5.622436 0.000000 -1.000000 0.000000 0.710265 0.158672
-1.000000 0.708479 4.155508 -0.000000 0.000000 1.000000 0.571733 0.983285
-1.000000 -1.000000 4.155508 -0.000000 0.000000 1.000000 0.571733 0.773442
-1.000000 0.708479 1.155507 -0.000000 0.000000 1.000000 0.120027 0.966270
-1.000000 -1.000000 1.155507 -0.000000 0.000000 1.000000 0.120027 0.756427
-1.000000 -1.000000 1.155507 1.000000 0.000000 0.000000 0.830725 0.773656
-1.000000 0.708479 1.155507 1.000000 0.000000 0.000000 0.830725 0.983499
-1.000000 0.708479 2.018312 1.000000 0.000000 0.000000 0.933905 0.983499
-1.000000 -1.000000 2.018312 1.000000 -0.000000 0.000000 0.933905 0.773656
-1.000000 1.000000 1.155507 -0.000000 1.000000 0.000000 0.876508 0.065907
-1.382814 1.000000 1.155507 -0.000000 1.000000 0.000000 0.830725 0.065907
-1.382814 1.000000 2.018312 -0.000000 1.000000 0.000000 0.830725 0.171880
-1.000000 1.000000 2.018312 0.000000 1.000000 0.000000 0.876508 0.171880
-1.382814 -0.678810 1.155507 -1.000000 0.000000 0.000000 0.065907 0.201209
-1.382814 -1.000000 1.155507 -1.000000 0.000000 0.000000 0.065907 0.239621
-1.382814 -1.000000 2.018312 -1.000000 0.000000 0.000000 0.171879 0.239621
-1.382814 -0.678810 2.018312 -1.000000 -0.000000 -0.000000 0.171879 0.201209
-1.000000 -1.000000 0.622435 -0.000000 -1.000000 -0.000000 0.710265 0.772789
-1.000000 -1.000000 1.155507 0.000000 -1.000000 -0.000000 0.710265 0.707316
-1.000000 -1.000000 2.018312 -0.000000 -1.000000 -0.000000 0.710265 0.601343
-1.000000 -1.000000 2.155508 0.000000 -1.000000 -0.000000 0.710265 0.584492
-1.000000 -1.000000 2.018312 -0.000000 -0.000000 -1.000000 0.205624 0.875875
-1.000000 0.708479 2.018312 -0.000000 -0.000000 -1.000000 0.415467 0.875875
-1.000000 -1.000000 4.013756 -0.000000 -1.000000 -0.000000 0.710265 0.356256
-1.000000 -1.000000 4.155508 0.000000 -1.000000 -0.000000 0.710265 0.338845
-1.000000 0.708479 1.155507 -0.000000 -1.000000 -0.000000 0.205624 0.876742
-1.000000 0.708479 2.018312 0.000000 -1.000000 -0.000000 0.308809 0.876742
-1.000000 0.708479 4.155508 -0.000000 -1.000000 -0.000000 0.452139 0.772575
-1.000000 0.708479 5.622436 0.000000 -1.000000 -0.000000 0.452139 0.592402
-1.382814 -1.000000 2.155508 0.000000 -1.000000 0.000000 0.664483 0.584492
-1.382814 -1.000000 2.018312 0.000000 -1.000000 0.000000 0.664483 0.601343
-1.000000 1.000000 0.622435 -0.000000 1.000000 0.000000 0.876508 0.000433
-1.382814 1.000000 0.622435 -0.000000 1.000000 0.000000 0.830725 0.000433
-1.382814 1.000000 5.622436 -0.000000 1.000000 0.000000 0.830725 0.614550
-1.382814 1.000000 5.910780 -0.000000 1.000000 0.000000 0.830725 0.649966
-1.000000 1.000000 5.910780 0.000000 1.000000 0.000000 0.876508 0.649966
-1.382814 -1.000000 1.155507 0.000000 -1.000000 0.000000 0.664483 0.707316
-1.000000 1.000000 2.155508 -0.000000 1.000000 0.000000 0.876508 0.188731
-1.000000 -1.000000 2.155508 1.000000 0.000000 0.000000 0.205624 0.468712
-1.000000 0.708479 2.155508 1.000000 0.000000 0.000000 0.409947 0.468712
-1.000000 0.708479 4.013756 1.000000 0.000000 0.000000 0.409947 0.240488
-1.000000 -1.000000 4.013756 1.000000 -0.000000 0.000000 0.205624 0.240488
-1.000000 0.708479 2.155508 -0.000000 -1.000000 -0.000000 0.205624 0.635821
-1.000000 0.708479 4.013756 0.000000 -1.000000 -0.000000 0.433860 0.635821
-1.000000 -1.000000 4.013756 -0.000000 -0.000000 -1.000000 0.664483 0.773656
-1.000000 0.708479 4.013756 -0.000000 -0.000000 -1.000000 0.664483 0.983499
-1.000000 -0.678810 5.910780 -0.707107 0.000000 0.707107 0.450264 0.286270
-1.000000 -1.000000 5.910780 -0.707107 0.000000 0.707107 0.410814 0.286270
0.000000 -1.000000 6.910780 -0.707107 0.000000 0.707107 0.410814 0.405864
0.000000 -0.678810 6.910780 -0.707107 0.000000 0.707107 0.450264 0.405864
0.000000 -0.678810 6.622436 1.000000 -0.000000 0.000000 0.621981 0.446180
0.000000 -0.678810 6.910780 1.000000 -0.000000 0.000000 0.656463 0.446180
0.000000 -1.000000 6.910780 1.000000 -0.000000 0.000000 0.656463 0.406730
0.000000 -1.000000 6.622436 1.000000 -0.000000 0.000000 0.621981 0.406730
-1.382814 -0.678810 4.155508 -1.000000 0.000000 0.000000 0.434375 0.201209
-1.382814 -1.000000 4.155508 -1.000000 0.000000 0.000000 0.434375 0.239621
-1.382814 -1.000000 5.622436 -1.000000 0.000000 0.000000 0.614548 0.239621
-1.382814 -0.678810 5.622436 -1.000000 -0.000000 -0.000000 0.614548 0.201209
-1.382814 0.678810 5.622436 -1.000000 -0.000000 -0.000000 0.614548 0.038846
-1.382814 0.678810 5.910780 -1.000000 -0.000000 -0.000000 0.649963 0.038846
-1.382814 1.000000 5.910780 -1.000000 -0.000000 -0.000000 0.649963 0.000433
-1.382814 1.000000 5.622436 -1.000000 -0.000000 0.000000 0.614548 0.000433
-1.382814 -0.678810 0.622435 -1.000000 0.000000 0.000000 0.000433 0.201209
-1.382814 -1.000000 0.622435 -1.000000 0.000000 0.000000 0.000433 0.239621
-1.382814 -1.000000 2.155508 -1.000000 0.000000 0.000000 0.188730 0.239621
-1.382814 -0.678810 2.155508 -1.000000 -0.000000 -0.000000 0.188730 0.201209
-1.382814 -1.000000 4.013756 -1.000000 0.000000 0.000000 0.416965 0.239621
-1.382814 -0.678810 4.013756 -1.000000 -0.000000 -0.000000 0.416965 0.201209
-1.047856 0.726666 0.622435 0.990612 0.000000 -0.136702 0.579901 0.680212
-1.133748 0.794122 0.000019 0.990612 0.000000 -0.136702 0.656463 0.672144
-1.133748 0.884688 0.000019 0.990612 0.000000 -0.136702 0.656463 0.661313
-1.047856 0.952144 0.622435 0.990612 0.000000 -0.136702 0.579901 0.653246
-1.382814 1.000000 2.155508 -0.000000 1.000000 0.000000 0.830725 0.188731
-1.382814 -1.000000 0.622435 0.000000 -1.000000 0.000000 0.664483 0.772789
-1.382814 -1.000000 4.155508 0.000000 -1.000000 0.000000 0.664483 0.338845
-1.000000 1.000000 5.910780 1.000000 -0.000000 0.000000 0.586784 0.589662
-1.000000 1.000000 6.021937 1.000000 -0.000000 0.000000 0.600077 0.589662
-1.000000 0.678810 6.021937 1.000000 -0.000000 0.000000 0.600077 0.550212
-1.000000 0.678810 5.910780 1.000000 -0.000000 0.000000 0.586784 0.550212
-1.382814 -1.000000 4.013756 0.000000 -1.000000 0.000000 0.664483 0.356256
-1.000000 -1.000000 6.021937 0.000000 -1.000000 0.000000 0.710265 0.109604
-1.382814 -1.000000 6.021937 0.000000 -1.000000 0.000000 0.664483 0.109604
-1.000000 0.678810 5.910780 0.000000 0.000000 1.000000 0.617013 0.286270
-1.382814 0.678810 5.910780 0.000000 0.000000 1.000000 0.617013 0.240488
-1.382814 -0.678810 5.910780 0.000000 0.000000 1.000000 0.450264 0.240488
-1.000000 -0.678810 5.910780 0.000000 -0.000000 1.000000 0.450264 0.286270
-1.047856 0.952144 0.622435 0.000000 0.994178 -0.107747 0.197374 0.545718
-1.133748 0.884688 0.000019 0.000000 0.994178 -0.107747 0.120894 0.555990
-1.249066 0.884688 0.000019 0.000000 0.994178 -0.107747 0.120894 0.569781
-1.334958 0.952144 0.622435 0.000000 0.994178 -0.107747 0.197374 0.580053
-1.382814 -0.678810 0.622435 0.000000 0.000000 -1.000000 0.245074 0.634954
-1.382814 0.678810 0.622435 0.000000 0.000000 -1.000000 0.411822 0.634954
-1.000000 0.678810 0.622435 -0.000000 -0.000000 -1.000000 0.411822 0.589172
-1.382814 1.000000 4.013756 -1.000000 0.000000 0.000000 0.416965 0.000433
-1.382814 0.678810 4.013756 -1.000000 0.000000 0.000000 0.416965 0.038846
-1.382814 0.678810 4.155508 -1.000000 0.000000 0.000000 0.434376 0.038846
-1.382814 1.000000 4.155508 -1.000000 -0.000000 -0.000000 0.434376 0.000433
-1.382814 1.000000 2.155508 -1.000000 0.000000 0.000000 0.188730 0.000433
-1.382814 0.678810 2.155508 -1.000000 0.000000 0.000000 0.188730 0.038846
-1.382814 1.000000 2.018312 -1.000000 0.000000 0.000000 0.171879 0.000433
-1.382814 0.678810 2.018312 -1.000000 0.000000 0.000000 0.171879 0.038846
-1.382814 1.000000 0.622435 -1.000000 0.000000 0.000000 0.000433 0.000433
-1.382814 0.678810 0.622435 -1.000000 0.000000 0.000000 0.000433 0.038846
-1.382814 0.678810 1.155507 -1.000000 0.000000 0.000000 0.065907 0.038846
-1.382814 1.000000 1.155507 -1.000000 -0.000000 -0.000000 0.065907 0.000433
-1.382814 -1.000000 5.910780 -1.000000 -0.000000 -0.000000 0.649963 0.239621
-1.382814 -0.678810 5.910780 -1.000000 -0.000000 -0.000000 0.649963 0.201209
0.000000 1.000000 6.622436 1.000000 -0.000000 0.000000 0.621981 0.652379
0.000000 1.000000 6.910780 1.000000 -0.000000 0.000000 0.656463 0.652379
0.000000 0.678810 6.910780 1.000000 -0.000000 0.000000 0.656463 0.612929
0.000000 0.678810 6.622436 1.000000 -0.000000 0.000000 0.621981 0.612929
-1.000000 1.000000 5.910780 -0.707107 0.000000 0.707107 0.656463 0.286270
-1.000000 0.678810 5.910780 -0.707107 0.000000 0.707107 0.617013 0.286270
0.000000 0.678810 6.910780 -0.707107 0.000000 0.707107 0.617013 0.405864
0.000000 1.000000 6.910780 -0.707107 0.000000 0.707107 0.656463 0.405864
-1.000000 1.000000 0.622435 0.000000 0.000000 -1.000000 0.451272 0.589172
-1.111352 0.760979 6.133372 0.000000 -0.997695 0.067852 0.485427 0.420047
-1.153535 0.802304 6.741018 0.000000 -0.997695 0.067852 0.410814 0.425092
-1.229279 0.802304 6.741018 0.000000 -0.997695 0.067852 0.410814 0.434151
-1.271462 0.760979 6.133372 0.000000 -0.997695 0.067852 0.485427 0.439196
-1.111352 -0.760979 6.133372 0.997599 -0.000000 0.069254 0.579901 0.755502
-1.153535 -0.802304 6.741018 0.997599 -0.000000 0.069254 0.654471 0.750560
-1.153535 -0.876506 6.741018 0.997599 -0.000000 0.069254 0.654471 0.741686
-1.111352 -0.917832 6.133372 0.997599 0.000000 0.069254 0.579901 0.736744
-1.000000 0.678810 5.910780 0.000000 -1.000000 0.000000 0.512726 0.406730
-1.000000 0.678810 6.021937 0.000000 -1.000000 0.000000 0.499073 0.406730
-1.382814 0.678810 6.021937 0.000000 -1.000000 0.000000 0.499073 0.452513
-1.382814 0.678810 5.910780 0.000000 -1.000000 0.000000 0.512726 0.452513
-1.382814 -1.000000 6.021937 -1.000000 -0.000000 -0.000000 0.663616 0.239621
-1.382814 -0.678810 6.021937 -1.000000 -0.000000 -0.000000 0.663616 0.201209
-1.382814 0.678810 6.021937 -1.000000 -0.000000 -0.000000 0.663616 0.038846
-1.382814 1.000000 6.021937 -1.000000 -0.000000 -0.000000 0.663616 0.000433
-1.382814 1.000000 6.021937 0.000000 1.000000 0.000000 0.830725 0.663619
-1.000000 1.000000 6.021937 0.000000 1.000000 0.000000 0.876508 0.663619
-1.382814 -0.678810 5.910780 0.000000 1.000000 0.000000 0.615505 0.406730
-1.382814 -0.678810 6.021937 0.000000 1.000000 0.000000 0.601852 0.406730
-1.000000 -0.678810 6.021937 0.000000 1.000000 0.000000 0.601852 0.452513
-1.000000 -0.678810 5.910780 0.000000 1.000000 -0.000000 0.615505 0.452513
-1.000000 -0.678810 5.910780 1.000000 -0.000000 0.000000 0.586784 0.549345
-1.000000 -0.678810 6.021937 1.000000 -0.000000 0.000000 0.600077 0.549345
-1.000000 -1.000000 6.021937 1.000000 -0.000000 0.000000 0.600077 0.509895
-1.000000 -1.000000 5.910780 1.000000 -0.000000 0.000000 0.586784 0.509895
-1.111352 0.917832 6.133372 -0.000000 0.804853 0.593474 0.863191 0.677265
-1.000000 1.000000 6.021937 -0.000000 0.804853 0.593474 0.876508 0.663619
-1.382814 1.000000 6.021937 -0.000000 0.804853 0.593474 0.830725 0.663619
-1.271462 0.917832 6.133372 0.000000 0.804853 0.593474 0.844042 0.677265
-1.111352 -0.917832 6.133372 0.707367 0.000000 0.706846 0.572600 0.539253
-1.000000 -1.000000 6.021937 0.707367 0.000000 0.706846 0.585917 0.549345
-1.000000 -0.678810 6.021937 0.707367 0.000000 0.706846 0.585917 0.509895
-1.111352 -0.760979 6.133372 0.707367 0.000000 0.706846 0.572600 0.519987
-1.271462 -0.760979 6.133372 -0.707367 0.000000 0.706846 0.572600 0.498936
-1.382814 -0.678810 6.021937 -0.707367 0.000000 0.706846 0.585917 0.509028
-1.382814 -1.000000 6.021937 -0.707367 0.000000 0.706846 0.585917 0.469578
-1.271462 -0.917832 6.133372 -0.707367 0.000000 0.706846 0.572600 0.479671
-1.271462 -0.917832 6.133372 0.000000 -0.804853 0.593474 0.677800 0.095958
-1.382814 -1.000000 6.021937 0.000000 -0.804853 0.593474 0.664483 0.109604
-1.000000 -1.000000 6.021937 0.000000 -0.804853 0.593474 0.710265 0.109604
-1.111352 -0.917832 6.133372 0.000000 -0.804853 0.593474 0.696948 0.095958
-1.111352 0.760979 6.133372 0.707367 0.000000 0.706846 0.572600 0.579570
-1.000000 0.678810 6.021937 0.707367 0.000000 0.706846 0.585917 0.589662
-1.000000 1.000000 6.021937 0.707367 0.000000 0.706846 0.585917 0.550212
-1.111352 0.917832 6.133372 0.707367 0.000000 0.706846 0.572600 0.560304
-1.271462 0.917832 6.133372 -0.707367 0.000000 0.706846 0.586784 0.498936
-1.382814 1.000000 6.021937 -0.707367 0.000000 0.706846 0.600101 0.509028
-1.382814 0.678810 6.021937 -0.707367 0.000000 0.706846 0.600101 0.469578
-1.271462 0.760979 6.133372 -0.707367 0.000000 0.706846 0.586784 0.479671
-1.271462 0.760979 6.133372 0.000000 -0.804853 0.593474 0.485427 0.439196
-1.382814 0.678810 6.021937 0.000000 -0.804853 0.593474 0.499073 0.452513
-1.000000 0.678810 6.021937 0.000000 -0.804853 0.593474 0.499073 0.406730
-1.111352 0.760979 6.133372 0.000000 -0.804853 0.593474 0.485427 0.420047
-1.111352 -0.760979 6.133372 -0.000000 0.804853 0.593474 0.588205 0.439196
-1.000000 -0.678810 6.021937 -0.000000 0.804853 0.593474 0.601852 0.452513
-1.382814 -0.678810 6.021937 -0.000000 0.804853 0.593474 0.601852 0.406730
-1.271462 -0.760979 6.133372 0.000000 0.804853 0.593474 0.588205 0.420047
-1.153535 -0.802304 6.741018 0.000000 0.000000 1.000000 0.453683 0.453379
-1.229279 -0.802304 6.741018 0.000000 0.000000 1.000000 0.444380 0.453380
-1.229279 -0.876506 6.741018 0.000000 0.000000 1.000000 0.444380 0.462254
-1.153535 -0.876506 6.741018 0.000000 -0.000000 1.000000 0.453683 0.462254
-1.153535 0.876506 6.741018 0.000000 0.000000 1.000000 0.443513 0.453379
-1.229279 0.876506 6.741018 0.000000 0.000000 1.000000 0.434210 0.453380
-1.229279 0.802304 6.741018 0.000000 0.000000 1.000000 0.434210 0.462254
-1.153535 0.802304 6.741018 0.000000 -0.000000 1.000000 0.443513 0.462254
-1.111352 0.917832 6.133372 0.997599 -0.000000 0.069254 0.120894 0.772369
-1.153535 0.876506 6.741018 0.997599 -0.000000 0.069254 0.195465 0.767427
-1.153535 0.802304 6.741018 0.997599 -0.000000 0.069254 0.195465 0.758553
-1.111352 0.760979 6.133372 0.997599 0.000000 0.069254 0.120894 0.753611
-1.271462 -0.917832 6.133372 -0.997599 0.000000 0.069254 0.120894 0.752744
-1.229279 -0.876506 6.741018 -0.997599 0.000000 0.069254 0.195501 0.747802
-1.229279 -0.802304 6.741018 -0.997599 0.000000 0.069254 0.195501 0.738928
-1.271462 -0.760979 6.133372 -0.997599 0.000000 0.069254 0.120894 0.733985
-1.271462 0.917832 6.133372 0.000000 0.997695 0.067852 0.844042 0.677265
-1.229279 0.876506 6.741018 0.000000 0.997695 0.067852 0.849087 0.751878
-1.153535 0.876506 6.741018 0.000000 0.997695 0.067852 0.858146 0.751878
-1.111352 0.917832 6.133372 0.000000 0.997695 0.067852 0.863191 0.677265
-1.271462 -0.760979 6.133372 0.000000 0.997695 0.067852 0.588205 0.420047
-1.229279 -0.802304 6.741018 0.000000 0.997695 0.067852 0.513593 0.425092
-1.153535 -0.802304 6.741018 0.000000 0.997695 0.067852 0.513593 0.434151
-1.111352 -0.760979 6.133372 0.000000 0.997695 0.067852 0.588205 0.439196
-1.271462 0.760979 6.133372 -0.997599 0.000000 0.069254 0.120894 0.733118
-1.229279 0.802304 6.741018 -0.997599 0.000000 0.069254 0.195501 0.728176
-1.229279 0.876506 6.741018 -0.997599 0.000000 0.069254 0.195501 0.719302
-1.271462 0.917832 6.133372 -0.997599 0.000000 0.069254 0.120894 0.714360
-1.111352 -0.917832 6.133372 0.000000 -0.997695 0.067852 0.696948 0.095958
-1.153535 -0.876506 6.741018 0.000000 -0.997695 0.067852 0.691903 0.021345
-1.229279 -0.876506 6.741018 0.000000 -0.997695 0.067852 0.682844 0.021345
-1.271462 -0.917832 6.133372 0.000000 -0.997695 0.067852 0.677800 0.095958
-1.047856 0.952144 0.622435 -0.000000 0.000000 -1.000000 0.445394 0.594895
-1.047856 0.726666 0.622435 0.000000 0.000000 -1.000000 0.417700 0.594895
-1.334958 0.726666 0.622435 0.000000 0.000000 -1.000000 0.417700 0.629231
-1.382814 1.000000 0.622435 0.000000 0.000000 -1.000000 0.451272 0.634954
-1.334958 0.952144 0.622435 -0.000000 -0.000000 -1.000000 0.445394 0.629231
-1.047856 -0.952144 0.622435 0.000000 0.000000 -1.000000 0.211501 0.594895
-1.382814 -1.000000 0.622435 0.000000 0.000000 -1.000000 0.205624 0.634954
-1.334958 -0.952144 0.622435 0.000000 -0.000000 -1.000000 0.211501 0.629231
-1.047856 -0.726666 0.622435 -0.000000 0.000000 -1.000000 0.239196 0.594895
-1.334958 -0.726666 0.622435 -0.000000 -0.000000 -1.000000 0.239196 0.629231
-1.133748 0.794122 0.000019 0.000000 0.000000 -1.000000 0.433343 0.467543
-1.249066 0.794122 0.000019 0.000000 0.000000 -1.000000 0.433343 0.453379
-1.249066 0.884688 0.000019 0.000000 0.000000 -1.000000 0.422512 0.453379
-1.133748 0.884688 0.000019 -0.000000 -0.000000 -1.000000 0.422512 0.467543
-1.133748 -0.884688 0.000019 0.000000 0.000000 -1.000000 0.421645 0.467543
-1.249066 -0.884688 0.000019 0.000000 0.000000 -1.000000 0.421645 0.453379
-1.249066 -0.794122 0.000019 0.000000 0.000000 -1.000000 0.410814 0.453379
-1.133748 -0.794122 0.000019 -0.000000 -0.000000 -1.000000 0.410814 0.467543
-1.334958 0.726666 0.622435 -0.000000 -0.994178 -0.107747 0.120894 0.685660
-1.249066 0.794122 0.000019 -0.000000 -0.994178 -0.107747 0.197374 0.675388
-1.133748 0.794122 0.000019 -0.000000 -0.994178 -0.107747 0.197374 0.661597
-1.047856 0.726666 0.622435 0.000000 -0.994178 -0.107747 0.120894 0.651325
-1.334958 -0.726666 0.622435 -0.990612 0.000000 -0.136702 0.656401 0.708911
-1.249066 -0.794122 0.000019 -0.990612 0.000000 -0.136702 0.579901 0.716978
-1.249066 -0.884688 0.000019 -0.990612 0.000000 -0.136702 0.579901 0.727809
-1.334958 -0.952144 0.622435 -0.990612 0.000000 -0.136702 0.656401 0.735877
-1.334958 -0.952144 0.622435 -0.000000 -0.994178 -0.107747 0.197374 0.580920
-1.249066 -0.884688 0.000019 -0.000000 -0.994178 -0.107747 0.120894 0.591192
-1.133748 -0.884688 0.000019 -0.000000 -0.994178 -0.107747 0.120894 0.604984
-1.047856 -0.952144 0.622435 0.000000 -0.994178 -0.107747 0.197374 0.615256
-1.334958 0.952144 0.622435 -0.990612 0.000000 -0.136702 0.579901 0.708044
-1.249066 0.884688 0.000019 -0.990612 0.000000 -0.136702 0.656401 0.699977
-1.249066 0.794122 0.000019 -0.990612 0.000000 -0.136702 0.656401 0.689146
-1.334958 0.726666 0.622435 -0.990612 0.000000 -0.136702 0.579901 0.681079
-1.047856 -0.726666 0.622435 0.000000 0.994178 -0.107747 0.197374 0.616123
-1.133748 -0.794122 0.000019 0.000000 0.994178 -0.107747 0.120894 0.626395
-1.249066 -0.794122 0.000019 0.000000 0.994178 -0.107747 0.120894 0.640186
-1.334958 -0.726666 0.622435 0.000000 0.994178 -0.107747 0.197374 0.650458
-1.047856 -0.952144 0.622435 0.990612 0.000000 -0.136702 0.120894 0.713493
-1.133748 -0.884688 0.000019 0.990612 0.000000 -0.136702 0.197456 0.705426
-1.133748 -0.794122 0.000019 0.990612 0.000000 -0.136702 0.197456 0.694595
-1.047856 -0.726666 0.622435 0.990612 0.000000 -0.136702 0.120894 0.686527
3 0 1 2
3 0 2 3
3 4 5 6
3 4 6 7
3 8 7 9
3 8 9 10
3 11 12 13
3 11 13 14
3 15 16 17
3 15 17 18
3 19 20 21
3 19 21 22
3 23 24 25
3 23 25 26
3 27 28 29
3 27 29 30
3 31 32 33
3 31 33 34
3 35 36 37
3 35 37 38
3 39 40 41
3 39 41 42
3 43 44 45
3 43 45 46
3 47 48 40
3 47 40 39
3 49 50 51
3 49 51 52
3 53 54 55
3 53 55 56
3 57 58 59
3 57 59 60
3 61 62 63
3 61 63 64
3 65 66 67
3 65 67 68
3 69 70 71
3 69 71 72
3 54 53 73
3 54 73 74
3 75 39 42
3 75 42 76
3 7 6 77
3 7 77 9
3 6 78 79
3 6 79 77
3 53 50 80
3 53 80 73
3 81 47 39
3 81 39 75
3 48 82 83
3 48 83 40
3 82 84 8
3 82 8 83
3 84 4 7
3 84 7 8
3 85 86 87
3 85 87 88
3 89 90 91
3 89 91 92
3 93 94 95
3 93 95 96
3 97 98 99
3 97 99 100
3 101 24 23
3 101 23 102
3 6 5 103
3 6 103 78
3 104 105 106
3 104 106 107
3 108 109 110
3 108 110 111
3 112 43 46
3 112 46 113
3 44 114 115
3 44 115 45
3 114 116 117
3 114 117 115
3 116 104 107
3 116 107 117
3 118 119 120
3 118 120 121
3 83 8 10
3 83 10 122
3 40 83 122
3 40 122 41
3 50 49 123
3 50 123 80
3 24 62 124
3 24 124 25
3 125 126 127
3 125 127 128
3 62 61 129
3 62 129 124
3 61 54 74
3 61 74 129
3 23 26 130
3 23 130 131
3 132 133 134
3 132 134 135
3 136 137 138
3 136 138 139
3 16 140 141
3 16 141 142
3 143 144 145
3 143 145 146
3 146 145 104
3 146 104 116
3 147 143 146
3 147 146 148
3 148 146 116
3 148 116 114
3 149 147 148
3 149 148 150
3 150 148 114
3 150 114 44
3 151 152 153
3 151 153 154
3 154 153 43
3 154 43 112
3 106 105 155
3 106 155 156
3 105 108 111
3 105 111 155
3 144 109 108
3 144 108 145
3 145 108 105
3 145 105 104
3 157 158 159
3 157 159 160
3 160 159 98
3 160 98 97
3 152 149 150
3 152 150 153
3 153 150 44
3 153 44 43
3 161 162 140
3 161 140 163
3 163 140 16
3 163 16 15
3 164 165 166
3 164 166 167
3 168 169 170
3 168 170 171
3 172 173 174
3 172 174 175
3 156 155 176
3 156 176 177
3 111 110 178
3 111 178 179
3 79 78 180
3 79 180 181
3 182 183 184
3 182 184 185
3 186 187 188
3 186 188 189
3 190 191 192
3 190 192 193
3 194 195 196
3 194 196 197
3 198 199 200
3 198 200 201
3 202 203 204
3 202 204 205
3 206 207 208
3 206 208 209
3 210 211 212
3 210 212 213
3 214 215 216
3 214 216 217
3 218 219 220
3 218 220 221
3 222 223 224
3 222 224 225
3 226 227 228
3 226 228 229
3 230 231 232
3 230 232 233
3 234 235 236
3 234 236 237
3 238 239 240
3 238 240 241
3 242 243 244
3 242 244 245
3 246 247 248
3 246 248 249
3 250 251 252
3 250 252 253
3 254 255 140
3 254 140 162
3 256 257 258
3 256 258 141
3 257 254 162
3 257 162 258
3 259 260 261
3 259 261 17
3 262 259 17
3 262 17 16
3 260 263 142
3 260 142 261
3 263 262 16
3 263 16 142
3 255 256 141
3 255 141 140
3 264 265 266
3 264 266 267
3 268 269 270
3 268 270 271
3 272 273 274
3 272 274 275
3 276 277 278
3 276 278 279
3 280 281 282
3 280 282 283
3 284 285 286
3 284 286 287
3 288 289 290
3 288 290 291
3 292 293 294
3 292 294 295
3 296 297 298
3 296 298 299
3 4 300 301
3 4 301 5
3 302 303 304
3 302 304 300
3 305 306 307
3 305 307 308
3 15 18 309
3 15 309 310
3 19 22 311
3 19 311 312
3 313 314 315
3 313 315 316
3 27 30 317
3 27 317 318
3 31 34 319
3 31 319 320
3 321 322 323
3 321 323 324
3 325 326 327
3 325 327 328
3 329 330 331
3 329 331 332
3 47 325 328
3 47 328 48
3 333 52 51
3 333 51 334
3 335 56 55
3 335 55 336
3 337 338 59
3 337 59 58
3 339 64 63
3 339 63 340
3 341 68 67
3 341 67 342
3 343 72 71
3 343 71 344
3 336 345 346
3 336 346 335
3 347 348 326
3 347 326 325
3 300 304 349
3 300 349 301
3 301 349 350
3 301 350 351
3 335 346 352
3 335 352 334
3 81 347 325
3 81 325 47
3 48 328 353
3 48 353 82
3 82 353 302
3 82 302 84
3 84 302 300
3 84 300 4
3 354 355 356
3 354 356 357
3 358 92 91
3 358 91 359
3 360 361 95
3 360 95 94
3 362 363 364
3 362 364 365
3 101 102 313
3 101 313 316
3 301 351 103
3 301 103 5
3 366 367 368
3 366 368 369
3 370 371 372
3 370 372 373
3 374 375 376
3 374 376 377
3 378 379 330
3 378 330 329
3 332 331 380
3 332 380 381
3 381 380 382
3 381 382 383
3 383 382 371
3 383 371 370
3 384 385 386
3 384 386 387
3 353 388 303
3 353 303 302
3 328 327 388
3 328 388 353
3 334 352 389
3 334 389 333
3 316 315 390
3 316 390 340
3 391 392 393
3 391 393 394
3 340 390 395
3 340 395 339
3 339 395 345
3 339 345 336
3 313 396 397
3 313 397 314
3 398 399 400
3 398 400 401
3 402 403 404
3 402 404 405
3 310 406 407
3 310 407 408
3 409 410 411
3 409 411 412
3 410 383 370
3 410 370 411
3 413 414 410
3 413 410 409
3 414 381 383
3 414 383 410
3 415 416 414
3 415 414 413
3 416 332 381
3 416 381 414
3 417 418 419
3 417 419 420
3 418 378 329
3 418 329 419
3 372 421 422
3 372 422 373
3 373 422 375
3 373 375 374
3 412 411 374
3 412 374 377
3 411 370 373
3 411 373 374
3 423 424 425
3 423 425 426
3 426 425 367
3 426 367 366
3 427 428 429
3 427 429 430
3 428 362 365
3 428 365 429
3 420 419 416
3 420 416 415
3 419 329 332
3 419 332 416
3 161 163 408
3 161 408 431
3 163 15 310
3 163 310 408
3 432 433 434
3 432 434 435
3 436 437 438
3 436 438 439
3 440 441 442
3 440 442 443
3 421 444 445
3 421 445 422
3 375 446 447
3 375 447 376
3 350 448 449
3 350 449 351
3 450 451 452
3 450 452 453
3 454 455 456
3 454 456 457
3 458 459 460
3 458 460 461
3 462 463 464
3 462 464 465
3 466 467 468
3 466 468 469
3 470 471 472
3 470 472 473
3 474 475 476
3 474 476 477
3 478 479 480
3 478 480 481
3 482 483 484
3 482 484 485
3 486 487 488
3 486 488 489
3 490 491 492
3 490 492 493
3 494 495 496
3 494 496 497
3 498 499 500
3 498 500 501
3 502 503 504
3 502 504 505
3 506 507 508
3 506 508 509
3 510 511 512
3 510 512 513
3 514 515 516
3 514 516 517
3 518 519 520
3 518 520 521
3 522 431 408
3 522 408 523
3 524 407 525
3 524 525 526
3 526 525 431
3 526 431 522
3 527 309 528
3 527 528 529
3 530 310 309
3 530 309 527
3 529 528 406
3 529 406 531
3 531 406 310
3 531 310 530
3 523 408 407
3 523 407 524
3 532 533 534
3 532 534 535
3 536 537 538
3 536 538 539
3 540 541 542
3 540 542 543
3 544 545 546
3 544 546 547
3 548 549 550
3 548 550 551
3 552 553 554
3 552 554 555
3 556 557 558
3 556 558 559
3 560 561 562
3 560 562 563
